<svg width="24" height="24" viewBox="0 0 24 24" fill="none" xmlns="http://www.w3.org/2000/svg">
<circle cx="17.5" cy="17.5" r="2.5" stroke="white" stroke-width="2"/>
<path d="M12 6.5H16C16.5523 6.5 17 6.94773 17 7.50002L17 8.43394C17 8.7852 16.8157 9.1107 16.5145 9.29142L7.48551 14.7088C7.1843 14.8895 7 15.2151 7.00001 15.5663L7.00003 16.5C7.00004 17.0523 7.44775 17.5 8.00003 17.5H12" stroke="white" stroke-width="2"/>
<path d="M4.73223 4.73203C5.70854 3.75572 7.29146 3.75572 8.26777 4.73203C9.24408 5.70834 9.24408 7.29125 8.26777 8.26756L6.5 10.0353L4.73223 8.26756C3.75592 7.29125 3.75592 5.70834 4.73223 4.73203Z" stroke="white" stroke-width="2"/>
</svg>
