<svg width="24" height="24" viewBox="0 0 24 24" fill="none" xmlns="http://www.w3.org/2000/svg">
<path fill-rule="evenodd" clip-rule="evenodd" d="M11.9773 18.364C14.3 18.364 16.4836 17.4442 18.126 15.774C19.7684 14.1039 20.6729 11.8833 20.6729 9.52138V9.33961H19.6531V9.52138C19.6531 11.6063 18.8546 13.5665 17.4049 15.0407C15.9551 16.515 14.0276 17.327 11.9773 17.327C9.92699 17.327 7.99941 16.515 6.54966 15.0407C5.09987 13.5665 4.30144 11.6063 4.30144 9.52138V9.33961H3.28167V9.52138C3.28167 11.8833 4.18614 14.1039 5.82855 15.774C7.47096 17.4442 9.6546 18.364 11.9773 18.364ZM11.9773 4.03706C14.9511 4.03706 17.3704 6.4973 17.3704 9.52136C17.3704 12.5454 14.9511 15.0057 11.9773 15.0057C9.0035 15.0057 6.5841 12.5454 6.5841 9.52136C6.5841 6.4973 9.0035 4.03706 11.9773 4.03706ZM11.9773 16.0427C13.6903 16.0427 15.3006 15.3644 16.5119 14.1327C17.7232 12.901 18.3902 11.2633 18.3902 9.52137C18.3902 7.77948 17.7232 6.14181 16.5119 4.9101C15.3006 3.67833 13.6903 3 11.9773 3C10.2643 3 8.65385 3.67833 7.44261 4.9101C6.23138 6.14181 5.56432 7.77948 5.56432 9.52137C5.56432 11.2633 6.23138 12.901 7.44261 14.1327C8.65385 15.3644 10.2643 16.0427 11.9773 16.0427ZM21.9347 9.33961V9.52138C21.9347 12.2261 20.8989 14.7689 19.0182 16.6814C17.1375 18.5939 14.637 19.6472 11.9773 19.6472C9.31756 19.6472 6.81701 18.5939 4.93625 16.6814C3.05555 14.7689 2.01983 12.2261 2.01983 9.52138V9.33961H1V9.52138C1 11.0281 1.29027 12.4901 1.86285 13.8666C2.41575 15.196 3.20721 16.3897 4.21519 17.4147C5.22312 18.4398 6.39707 19.2445 7.70426 19.8068C9.05794 20.389 10.4956 20.6842 11.9773 20.6842C13.459 20.6842 14.8966 20.389 16.2503 19.8068C17.5575 19.2445 18.7314 18.4398 19.7394 17.4147C20.7473 16.3897 21.5387 15.196 22.0917 13.8666C22.6642 12.4901 22.9545 11.0281 22.9545 9.52138V9.33961H21.9347ZM15.7686 10.8919H13.872V6.75814H12.7735V11.8888H15.7686V10.8919ZM10.2649 10.9827C9.41021 10.9827 8.8185 10.4143 8.8185 10.4143L8.20759 11.1785C8.20759 11.1785 8.99669 11.9591 10.2442 11.9591C11.3565 11.9591 12.0754 11.3383 12.0754 10.3776C12.0754 9.37102 11.2899 9.03804 10.441 8.82812C9.45632 8.58893 9.40835 8.42266 9.40835 8.1494C9.40835 7.85021 9.65711 7.66438 10.0575 7.66438C10.685 7.66438 11.1751 8.03756 11.1751 8.03756L11.7936 7.26265C11.7936 7.26265 11.1601 6.68853 10.0714 6.68853C9.0433 6.68853 8.35256 7.3067 8.35256 8.22668C8.35256 9.19951 8.97207 9.54202 10.0423 9.80497C11.019 10.0346 11.019 10.2329 11.019 10.4626C11.019 10.7834 10.73 10.9827 10.2649 10.9827Z" fill="black"/>
</svg>
